<svg xmlns="http://www.w3.org/2000/svg" xmlns:xlink="http://www.w3.org/1999/xlink" width="500" zoomAndPan="magnify" viewBox="0 0 375 374.999991" height="500" preserveAspectRatio="xMidYMid meet" version="1.0"><defs><g/></defs><path stroke-linecap="butt" transform="matrix(-0.75, 0, 0, -0.75, 317.832699, 137.54942)" fill="none" stroke-linejoin="miter" d="M 0.000890105 9.498185 L 51.985269 9.498185 " stroke="#e4e2dd" stroke-width="19" stroke-opacity="1" stroke-miterlimit="4"/><path stroke-linecap="butt" transform="matrix(0, -0.75, 0.75, 0, 303.705453, 162.41044)" fill="none" stroke-linejoin="miter" d="M 0.00037798 9.502106 L 51.984756 9.502106 " stroke="#e4e2dd" stroke-width="19" stroke-opacity="1" stroke-miterlimit="4"/><path stroke-linecap="butt" transform="matrix(1.167191, 0, 0, 1.167191, 57.906646, 237.692459)" fill="none" stroke-linejoin="miter" d="M -0.000339531 5.99975 L 33.406525 5.99975 " stroke="#e4e2dd" stroke-width="12" stroke-opacity="1" stroke-miterlimit="4"/><path stroke-linecap="butt" transform="matrix(0, 1.167191, -1.167191, 0, 71.904513, 212.717096)" fill="none" stroke-linejoin="miter" d="M 0.00141739 5.999164 L 33.404935 5.999164 " stroke="#e4e2dd" stroke-width="12" stroke-opacity="1" stroke-miterlimit="4"/><path stroke-linecap="butt" transform="matrix(0, 0.75, -0.75, 0, 72.018845, 123.422159)" fill="none" stroke-linejoin="miter" d="M -0.000378794 9.499085 L 51.989208 9.499085 " stroke="#e4e2dd" stroke-width="19" stroke-opacity="1" stroke-miterlimit="4"/><path stroke-linecap="butt" transform="matrix(-0.75, 0, 0, -0.75, 96.879879, 137.54942)" fill="none" stroke-linejoin="miter" d="M 0.00129692 9.498185 L 51.985675 9.498185 " stroke="#e4e2dd" stroke-width="19" stroke-opacity="1" stroke-miterlimit="4"/><path stroke-linecap="butt" transform="matrix(0, -0.75, 0.75, 0, 304.926342, 251.699748)" fill="none" stroke-linejoin="miter" d="M 0.000706029 9.499253 L 53.96946 9.499253 " stroke="#e4e2dd" stroke-width="19" stroke-opacity="1" stroke-miterlimit="4"/><path stroke-linecap="butt" transform="matrix(0.75, 0, 0, 0.75, 278.844421, 237.305125)" fill="none" stroke-linejoin="miter" d="M -0.000894119 9.499417 L 53.973068 9.499417 " stroke="#e4e2dd" stroke-width="19" stroke-opacity="1" stroke-miterlimit="4"/><g fill="#e4e2dd" fill-opacity="1"><g transform="translate(95.775368, 209.221803)"><g><path d="M 52.0625 0 L 49.3125 -34.3125 L 48.96875 -34.3125 L 37.109375 -0.34375 L 29.25 -0.34375 L 17.40625 -34.3125 L 17.046875 -34.3125 L 14.3125 0 L 1.125 0 L 6.3125 -57.875 L 20.34375 -57.875 L 33.1875 -24.484375 L 46.015625 -57.875 L 60.046875 -57.875 L 65.25 0 Z M 52.0625 0 "/></g></g></g><g fill="#e4e2dd" fill-opacity="1"><g transform="translate(160.533113, 209.221803)"><g><path d="M 5.40625 -56.046875 C 6.851562 -57.503906 8.582031 -58.234375 10.59375 -58.234375 C 12.601562 -58.234375 14.332031 -57.503906 15.78125 -56.046875 C 17.226562 -54.597656 17.953125 -52.867188 17.953125 -50.859375 C 17.953125 -48.847656 17.226562 -47.117188 15.78125 -45.671875 C 14.332031 -44.222656 12.601562 -43.5 10.59375 -43.5 C 8.582031 -43.5 6.851562 -44.222656 5.40625 -45.671875 C 3.957031 -47.117188 3.234375 -48.847656 3.234375 -50.859375 C 3.234375 -52.867188 3.957031 -54.597656 5.40625 -56.046875 Z M 4.203125 -35.984375 L 4.203125 0 L 16.625 0 L 16.625 -35.984375 Z M 4.203125 -35.984375 "/></g></g></g><g fill="#e4e2dd" fill-opacity="1"><g transform="translate(180.107733, 209.221803)"><g><path d="M 4.203125 0 L 4.203125 -60.328125 L 16.625 -60.328125 L 16.625 0 Z M 4.203125 0 "/></g></g></g><g fill="#e4e2dd" fill-opacity="1"><g transform="translate(199.331552, 209.221803)"><g><path d="M 4.203125 0 L 4.203125 -60.328125 L 16.625 -60.328125 L 16.625 0 Z M 4.203125 0 "/></g></g></g><g fill="#e4e2dd" fill-opacity="1"><g transform="translate(218.55537, 209.221803)"><g><path d="M 40.625 -16.28125 L 14.515625 -16.28125 C 14.515625 -13.75 15.332031 -11.875 16.96875 -10.65625 C 18.613281 -9.445312 20.394531 -8.84375 22.3125 -8.84375 C 24.320312 -8.84375 25.910156 -9.109375 27.078125 -9.640625 C 28.242188 -10.179688 29.578125 -11.25 31.078125 -12.84375 L 40.0625 -8.34375 C 36.320312 -2.082031 30.097656 1.046875 21.390625 1.046875 C 15.972656 1.046875 11.320312 -0.8125 7.4375 -4.53125 C 3.550781 -8.25 1.609375 -12.722656 1.609375 -17.953125 C 1.609375 -23.191406 3.550781 -27.679688 7.4375 -31.421875 C 11.320312 -35.171875 15.972656 -37.046875 21.390625 -37.046875 C 27.097656 -37.046875 31.738281 -35.394531 35.3125 -32.09375 C 38.894531 -28.800781 40.6875 -24.085938 40.6875 -17.953125 C 40.6875 -17.117188 40.664062 -16.5625 40.625 -16.28125 Z M 14.875 -23.15625 L 28.546875 -23.15625 C 28.265625 -25.019531 27.53125 -26.453125 26.34375 -27.453125 C 25.15625 -28.460938 23.625 -28.96875 21.75 -28.96875 C 19.6875 -28.96875 18.046875 -28.429688 16.828125 -27.359375 C 15.617188 -26.285156 14.96875 -24.882812 14.875 -23.15625 Z M 14.875 -23.15625 "/></g></g></g><g fill="#e4e2dd" fill-opacity="1"><g transform="translate(259.248201, 209.221803)"><g><path d="M 4.203125 0 L 4.203125 -35.984375 L 16.625 -35.984375 L 16.625 -30.796875 L 16.765625 -30.796875 C 16.859375 -30.984375 17.007812 -31.21875 17.21875 -31.5 C 17.4375 -31.78125 17.894531 -32.269531 18.59375 -32.96875 C 19.289062 -33.675781 20.035156 -34.304688 20.828125 -34.859375 C 21.628906 -35.421875 22.660156 -35.925781 23.921875 -36.375 C 25.179688 -36.820312 26.46875 -37.046875 27.78125 -37.046875 C 29.132812 -37.046875 30.46875 -36.859375 31.78125 -36.484375 C 33.09375 -36.109375 34.050781 -35.734375 34.65625 -35.359375 L 35.640625 -34.796875 L 30.453125 -24.28125 C 28.898438 -25.582031 26.75 -26.234375 24 -26.234375 C 22.5 -26.234375 21.207031 -25.90625 20.125 -25.25 C 19.050781 -24.601562 18.289062 -23.8125 17.84375 -22.875 C 17.40625 -21.9375 17.09375 -21.140625 16.90625 -20.484375 C 16.71875 -19.828125 16.625 -19.3125 16.625 -18.9375 L 16.625 0 Z M 4.203125 0 "/></g></g></g></svg>